<svg width="17" height="17" viewBox="0 0 20 20" fill="none" xmlns="http://www.w3.org/2000/svg">
<path d="M9.999 0C15.5224 0 20 4.47755 20 10.001C20 15.5234 15.5224 20 9.999 20C4.47555 20.001 1.67474e-07 15.5234 1.67474e-07 10.001C-0.000999733 4.47755 4.47555 0 9.999 0ZM9.995 8.24917C9.74996 8.24951 9.51357 8.33981 9.33072 8.50294C9.14786 8.66607 9.03128 8.89067 9.0031 9.13409L8.9961 9.25007L9.0001 14.7515L9.0061 14.8675C9.03404 15.1114 9.15073 15.3365 9.33392 15.4999C9.51712 15.6633 9.75402 15.7536 9.9995 15.7536C10.245 15.7536 10.4819 15.6633 10.6651 15.4999C10.8483 15.3365 10.965 15.1114 10.9929 14.8675L10.9989 14.7505L10.9949 9.24907L10.9879 9.13209C10.959 8.88887 10.8418 8.66472 10.6586 8.50216C10.4754 8.3396 10.2389 8.24993 9.994 8.25017L9.995 8.24917ZM10 4.50055C9.66811 4.50055 9.34982 4.63239 9.11514 4.86707C8.88047 5.10175 8.74863 5.42004 8.74863 5.75192C8.74863 6.08381 8.88047 6.4021 9.11514 6.63678C9.34982 6.87146 9.66811 7.0033 10 7.0033C10.1643 7.00323 10.3269 6.97081 10.4787 6.90789C10.6304 6.84497 10.7682 6.75277 10.8844 6.63657C11.0005 6.52037 11.0925 6.38244 11.1553 6.23065C11.2182 6.07886 11.2504 5.91619 11.2504 5.75192C11.2503 5.58766 11.2179 5.42501 11.155 5.27327C11.092 5.12154 10.9998 4.98368 10.8836 4.86757C10.7674 4.75146 10.6295 4.65938 10.4777 4.59658C10.3259 4.53377 10.1633 4.50148 9.999 4.50155L10 4.50055Z" fill="white"/>
</svg>
