<svg width="20" height="20" viewBox="0 0 14 14" fill="none" xmlns="http://www.w3.org/2000/svg">
<path fill="white" d="M9.25 13.75L4.75 12.175L1.2625 13.525C1.0125 13.625 0.78125 13.5967 0.56875 13.4402C0.35625 13.2837 0.25 13.0745 0.25 12.8125V2.3125C0.25 2.15 0.297 2.00625 0.391 1.88125C0.485 1.75625 0.613 1.6625 0.775 1.6L4.75 0.25L9.25 1.825L12.7375 0.475C12.9875 0.375 13.2188 0.40325 13.4313 0.55975C13.6438 0.71625 13.75 0.9255 13.75 1.1875V11.6875C13.75 11.85 13.703 11.9938 13.609 12.1188C13.515 12.2438 13.387 12.3375 13.225 12.4L9.25 13.75ZM8.5 11.9125V3.1375L5.5 2.0875V10.8625L8.5 11.9125Z"/>
</svg>